<svg xmlns="http://www.w3.org/2000/svg" width="328" height="158"><path d="M83.85 28.84c-5.88-7.78-17.32-9.96-26.41-9.7-15.7.44-34.48 7.22-43.17 21.1-6.02 9.61-6.13 21.72-1.36 31.84C18.99 85 32.56 92.25 45.96 95.18c20.14 4.41 43.12.77 61.87-7.29 14.07-6.04 26.82-16.7 31.82-31.56 3.99-11.83 1.27-24.66-6.32-34.39C123.38 9.19 107.1 5 91.7 4.06 63.06 2.32 28.22 9.82 10.95 35-3.5 56.08 10 92.7 37.05 93.82c1.58.07 1.57-2.38 0-2.45-21.7-.9-34.29-27.5-28.16-46.85 5.04-15.93 22.15-26.4 36.85-31.9 28.54-10.66 89.7-12.92 93.22 29.7 1.3 15.72-8.95 29.24-21.42 37.57C99.37 92.03 74.44 96.19 53 93.86c-15.49-1.68-31.36-8.98-38.28-23.67-5.39-11.44-2.7-25.05 5.86-34.13 9.82-10.4 27.49-15.08 41.33-14.44 6.84.31 16.04 3.44 19.83 8.45.95 1.25 3.08.03 2.12-1.23"/><path d="M73.39 49.78q.3 16.5.07 33.01c-.1 7.82-.31 15.64-.86 23.44a94 94 0 0 1-.97 8.85q-.25 1.5-.7 2.97c-.42 1.37-.43.46.08.93-1.16-1.06-2.9.67-1.73 1.73 3.25 2.95 4.48-3.62 4.8-5.5 1.32-7.84 1.43-15.93 1.65-23.86.4-13.85.37-27.72.1-41.57-.02-1.58-2.47-1.58-2.44 0"/><path d="M9.77 65.11c2.31-.99 8.06-1.9 11.44-2.29 12.84-1.44 25.93-.6 38.73.7 2.5.26 35.4 3.2 28.41 10.88-2.61 2.87-6.68 4.61-10.13 6.22a164 164 0 0 1-15.46 6.04c-1.5.52-.9 2.67.65 2.36 14.02-2.73 29.78-9.68 37.55-22.18.84-1.36-1.25-2.55-2.11-1.24-2.71 4.07-14.21 26.06-.88 24.26 4.8-.65 7.76-3.48 9.4-7.75.5-1.34 6.55-15.8 7.54-15.27l-.25-1.92a25 25 0 0 0-7.25 9.94c-1.3 3.52-2.6 10.18 1.04 12.85 4.7 3.46 8.75-15.16 8.67-17.6-.04-1.33-2.17-1.74-2.4-.33-.68 4.02-1.11 8.35-.19 12.35 1.4 6.03 6.9 2.96 9.9.14 8.15-7.68 15.35-18.1 19.88-28.31 1.72-3.89 4.72-12.56-1.14-14.7-3.72-1.37-7.17 5.06-8.5 7.4-3.52 6.18-5.89 13.21-7.4 20.15-.92 4.25-2.36 11.08.7 14.85a4.9 4.9 0 0 0 4.3 1.78c6.3-.33 12.7-1.72 18.85-3.07q2.66-.57 5.27-1.3c1.52-.42.88-2.78-.65-2.36a146 146 0 0 1-19.83 3.87c-2.36.31-5.15 1.31-6.47-1.18-.9-1.7-.74-4.03-.66-5.89.44-9.82 4.53-21.23 10.27-29.18.64-.89 2.15-2.96 3.46-2.72 2.98.55 1.24 6.59.76 8.21-2.52 8.47-8.46 16.32-13.87 23.12-2.04 2.56-11.65 15.73-12.78 7.07-.41-3.12-.06-6.48.46-9.58l-2.4-.32c.13 4.12-1.82 12.75-5.23 15.37-.2.16-.6-6.84-.44-7.64.46-2.21 1.62-4.22 2.83-6.09a23 23 0 0 1 4.55-5.1c.6-.5.4-1.57-.25-1.92-4.89-2.66-9.96 13.69-11.14 16.73-.75 1.94-1.46 3.22-3.3 4.48a7.6 7.6 0 0 1-5.52 1.4c-3.16-.57-2.15-5.22-1.72-7.07 1.12-4.75 3.8-9.4 6.5-13.44l-2.11-1.23c-7.43 11.94-22.7 18.45-36.1 21.06l.66 2.36c8.76-3.05 20.56-6.17 27.04-13.29 7.2-7.9-9.7-11.5-14.1-12.39-17-3.4-35.29-4.6-52.6-3.21-4.99.4-10.55.87-15.22 2.87-1.45.62-.2 2.73 1.24 2.11M169.4 46.86a556 556 0 0 0-7.05 19.39c-3.01 8.77-6.3 17.55-5.94 26.93.05 1.27.72 6.06 3.16 3.9 2.68-2.36 4.65-7 6.88-9.88 3.27-4.21 6.63-8.36 9.73-12.7 1.82-2.54 4.5-5.84 4.54-9.15.02-1.47-1.93-1.55-2.4-.32-2.56 6.53-7.5 17.47-4.26 24.38 1.14 2.42 4.55 2.48 6.74 2.1 4.69-.82 8.7-4.79 11.65-8.21 5.06-5.86 8.46-13.16 11.08-20.38 2-5.57 2.52-11.96-.58-17.2-5.92-10-21.63-8.17-30.84-5.34-1.51.47-.87 2.83.65 2.37 8.49-2.62 20.45-4.15 27.21 3.06 8.4 8.95-2.39 26.47-7.93 34.1-2.06 2.82-15.9 15.86-16.37 5.66-.3-6.55 2.65-13.86 5-19.9l-2.4-.32c-.04 3.03-3.17 6.47-4.82 8.78-2.78 3.88-5.8 7.58-8.73 11.34-1.85 2.36-3.83 4.73-5.25 7.38l-.56 1.06q-1.02 1.44.03.34c-.17-1.27-.13-2.58-.15-3.85-.03-1.65.07-3.15.38-4.77 2.46-13 7.84-25.8 12.58-38.12.57-1.47-1.8-2.1-2.36-.65m25.85 39.25q5.35-5.45 10.79-10.81l-1.93-1.48c-.91 1.77-5.74 10.84-1.63 11.64 4.68.92 9.83-5.8 12.48-8.86l-2.09-.87c-.17 1.71-1.2 7.29 1.27 7.97 1.44.4 2.28-1.15 2.87-2.16 1.48-2.53 2.76-5.27 4.65-7.54l-2.1-.86c-.39 3.12-.3 6.72 1.27 9.52 2.98 5.34 9.81.39 12.83-2.04 4.61-3.71 8.63-8.39 12.22-13.07 1.6-2.07 3.74-4.86 3.75-7.64 0-4.92-6.66.43-7.7 1.48-6.22 6.27-10 15.9-13.28 23.92-4.77 11.64-8.05 23.83-7.92 36.49a55 55 0 0 0 3.35 17.83c.79 2.2 1.88 4.6 3.77 6.09 3.01 2.35 5.92-.33 7.55-2.9 5.14-8.1 5.92-19.74 6.07-29.04.16-10.3-1.3-22.18-8.28-30.26l-1.2 2.04c10.15 4.21 19.83-4.33 24.82-12.24l-2.23-.94c-1.85 4.64-2.16 11.1 3.83 12.32 4.76.97 10.15-.4 14.43-2.44 2.16-1.04 6.47-4.42 4.7-7.36-3.66-6.12-10.2 1.71-10.42 6.22-.4 8.1 10.64 7 15.54 5.88 4.53-1.03 8.95-2.56 13.53-3.37 7.75-1.36 6.21 5.9 5.09 11.17-2.5 11.64-5.11 23.4-4.66 35.38.33 8.8 3.52 21.12 12.86 24.37 8.7 3.03 12.62-10.17 13.25-16.01 1.25-11.62-6.9-21.75-16.15-27.65-18.76-11.97-44.07-10.09-64.91-6.5-1.56.27-.9 2.63.65 2.37 20.73-3.58 45.15-5.16 63.7 6.68 11.44 7.3 18.25 20.84 11.83 33.9-1.47 2.97-4.2 5.5-7.72 4.85-3.64-.69-6.17-5.05-7.76-7.98-3.24-5.99-3.52-13.31-3.32-19.94.37-12.17 4.68-23.6 5.73-35.6.65-7.44-5.34-8.23-11.17-7.03-4.87 1-9.59 2.65-14.48 3.6-5.1.99-12.03-1.07-8.61-7.34q1.09-2.44 3.77.35c-1.2 1.37-3.33 2.24-4.96 2.88a21 21 0 0 1-11.3 1c-3.76-.77-1.98-6.87-1.1-9.1.54-1.34-1.52-2.07-2.23-.94-4.45 7.05-12.97 14.88-22.05 11.11-1.24-.51-1.9 1.23-1.2 2.05 10.16 11.78 8.72 32.4 5.46 46.49-.55 2.37-2.94 13.26-6.9 12.4-2.7-.57-4.03-6.4-4.64-8.3-2.28-7.09-2.52-14.67-1.88-22.03 1.1-12.64 5.84-24.91 11.34-36.23 1.98-4.1 4.03-8.22 6.7-11.92a24 24 0 0 1 3.75-4.06c.66-.57 2.04-1.9 1.76-.82-1.2 4.65-5.94 8.92-9.05 12.27-3.17 3.42-7.95 9.22-13.04 9.53-3.72.23-3.22-7.13-2.93-9.44.13-1.05-1.44-1.65-2.1-.87-2.01 2.43-3.53 5.28-5.02 8.04q.61 2.37.26.47c-.08-.72-.04-1.47-.02-2.2q.05-1.43.18-2.85c.1-1.05-1.41-1.64-2.09-.86a44 44 0 0 1-7.82 7.37c-3.02 2.09-1.68-1.25-1.08-2.94.52-1.46 1.2-2.87 1.9-4.24.63-1.23-.9-2.48-1.92-1.49-3.65 3.56-7.21 7.2-10.79 10.81-1.11 1.12.62 2.86 1.73 1.73m10.19-53.19a38 38 0 0 1-.18 3.31l-.07.35-.05.22-.03.1q.23-.8 1.43-.5c-1.3-.92-2.52 1.2-1.24 2.12 1.67 1.19 2.3-1.36 2.43-2.44q.18-1.58.16-3.16c0-1.59-2.45-1.59-2.45 0"/></svg>